<!DOCTYPE svg PUBLIC "-//W3C//DTD SVG 1.1//EN" "http://www.w3.org/Graphics/SVG/1.1/DTD/svg11.dtd">

<!-- Uploaded to: SVG Repo, www.svgrepo.com, Transformed by: SVG Repo Mixer Tools -->
<svg width="800px" height="800px" viewBox="0 -43 1110 1110" class="icon" version="1.1" xmlns="http://www.w3.org/2000/svg" fill="#000000">

<g id="SVGRepo_bgCarrier" stroke-width="0"/>

<g id="SVGRepo_tracerCarrier" stroke-linecap="round" stroke-linejoin="round"/>

<g id="SVGRepo_iconCarrier">

<path d="M13.652893 287.635849l0.452511 603.933671h1078.2295V287.635849h-108.615491v120.561771l-264.563596-4.2536v-120.691061H397.9896v120.691061H136.23157l-0.91795-120.691061-121.660727 4.38289z" fill="#22c55e"/>

<path d="M39.795081 820.732206h1024.988387v59.524547H39.795081z" fill="#3a7033"/>

<path d="M1082.922682 1023.987071H27.15064a27.15064 27.15064 0 0 1-27.15064-27.15064V278.999359a27.15064 27.15064 0 0 1 27.15064-27.15064h1055.772042a27.15064 27.15064 0 0 1 27.15064 27.15064V996.836431a27.15064 27.15064 0 0 1-27.15064 27.15064zM54.301281 969.685791h1001.47076V306.149999H54.301281z" fill="#203529"/>

<path d="M333.164214 306.149999h-130.840228a27.15064 27.15064 0 0 1-27.150641-27.15064L175.069914 133.187492a27.15064 27.15064 0 0 1 10.071595-21.125784l130.94366-106.016786A27.15064 27.15064 0 0 1 360.314855 27.170706v251.828653a27.15064 27.15064 0 0 1-27.150641 27.15064z m-103.715446-54.30128h76.564806V84.057762l-76.62945 62.058606zM907.762265 306.149999H776.909108a27.15064 27.15064 0 0 1-27.150641-27.15064V27.170706a27.15064 27.15064 0 0 1 44.242615-21.099926l130.94366 106.016786a27.15064 27.15064 0 0 1 10.058665 21.099926l-0.103431 145.811867a27.15064 27.15064 0 0 1-27.137711 27.15064z m-103.689588-54.30128h76.564805l0.077574-105.706493L804.059748 84.057762z" fill="#203529"/>

<path d="M776.909108 151.96022H333.164214a27.15064 27.15064 0 0 1-27.15064-27.15064V27.170706a27.15064 27.15064 0 0 1 27.15064-27.15064h443.744894a27.15064 27.15064 0 0 1 27.15064 27.15064v97.638874a27.15064 27.15064 0 0 1-27.15064 27.15064z m-416.607182-54.30128h389.456541V54.321346H360.314855zM397.9896 426.595411H140.03266a27.15064 27.15064 0 0 1-27.150641-27.15064v-120.445412a27.15064 27.15064 0 0 1 27.150641-27.15064h257.95694a27.15064 27.15064 0 0 1 27.15064 27.15064v120.445412a27.15064 27.15064 0 0 1-27.15064 27.15064z m-230.8063-54.30128h203.65566v-66.144132H167.1833zM980.409621 426.595411H722.465609a27.15064 27.15064 0 0 1-27.15064-27.15064v-120.445412a27.15064 27.15064 0 0 1 27.15064-27.15064h257.944012a27.15064 27.15064 0 0 1 27.15064 27.15064v120.445412a27.15064 27.15064 0 0 1-27.15064 27.15064z m-230.8063-54.30128h203.65566v-66.144132H749.61625zM1071.907279 918.72016H39.795081a27.15064 27.15064 0 1 1 0-54.301281h1032.112198a27.15064 27.15064 0 0 1 0 54.301281z" fill="#203529"/>

<path d="M202.220555 570.183512a13.57532 13.57532 0 0 1-13.57532-13.57532V408.572558a13.57532 13.57532 0 0 1 27.15064 0v148.035634a13.57532 13.57532 0 0 1-13.57532 13.57532zM277.208037 539.878226a13.57532 13.57532 0 0 1-13.57532-13.57532V418.915659a13.57532 13.57532 0 0 1 27.150641 0v107.451891a13.57532 13.57532 0 0 1-13.575321 13.510676zM807.343683 504.750469a13.57532 13.57532 0 0 1-13.575321-13.57532v-83.093889a13.57532 13.57532 0 0 1 27.150641 0v83.093889a13.57532 13.57532 0 0 1-13.57532 13.57532zM863.648939 504.750469a13.57532 13.57532 0 0 1-13.57532-13.57532v-83.093889a13.57532 13.57532 0 0 1 27.15064 0v83.093889a13.57532 13.57532 0 0 1-13.57532 13.57532zM260.219494 957.791224H39.795081a13.57532 13.57532 0 1 1 0-27.15064h220.424413a13.57532 13.57532 0 0 1 0 27.15064zM1073.264811 957.791224H749.293028a13.57532 13.57532 0 0 1 0-27.15064h323.971783a13.57532 13.57532 0 0 1 0 27.15064z" fill="#203529"/>

</g>

</svg>